<svg width="266" height="266" viewBox="0 0 266 266" fill="none" xmlns="http://www.w3.org/2000/svg">
<path d="M85.2031 135.39C83.3848 135.39 81.7223 135.13 80.3715 134.611C78.8648 134.039 77.6699 133.156 76.7867 132.013C75.9035 130.818 75.384 129.415 75.2801 127.805V127.545C75.2281 126.973 75.4359 126.402 75.8515 125.986C76.2672 125.571 76.7867 125.363 77.3582 125.363H77.6699C76.3191 124.064 75.5918 122.35 75.5918 120.375C75.5918 118.713 76.0594 117.206 76.9426 115.959C77.8258 114.764 79.0207 113.829 80.4754 113.206C81.8781 112.582 83.4367 112.323 85.1512 112.323C87.0215 112.323 88.684 112.582 90.0348 113.154C91.5414 113.777 92.6844 114.661 93.5156 115.803C94.3469 116.946 94.7625 118.349 94.8664 119.856V120.116C94.8664 120.687 94.7105 121.259 94.2949 121.622C94.0351 121.882 93.6715 122.09 93.3078 122.194C93.7234 122.557 94.0351 123.025 94.3469 123.493C94.9703 124.532 95.282 125.727 95.282 127.077C95.282 128.792 94.8664 130.246 93.9832 131.545C93.1519 132.792 91.9051 133.779 90.3465 134.455C88.8918 135.078 87.1773 135.39 85.2031 135.39Z" fill="#0071EE"/>
<path d="M81.0989 132.636C79.9559 132.221 79.0207 131.545 78.3973 130.714C77.7738 129.883 77.4102 128.844 77.3063 127.649V127.389H82.2418V127.493C82.2938 127.805 82.5016 128.116 82.7614 128.376C83.0211 128.636 83.3848 128.792 83.8004 128.948C84.216 129.104 84.6836 129.156 85.2031 129.156C85.7227 129.156 86.1903 129.104 86.6059 128.948C86.9696 128.792 87.2813 128.636 87.4891 128.376C87.6969 128.116 87.8008 127.857 87.8008 127.545C87.8008 127.129 87.593 126.766 87.1774 126.558C86.7617 126.35 86.0344 126.142 85.0473 125.934L83.2289 125.623C81.4106 125.311 80.0078 124.688 79.0727 123.804C78.0856 122.921 77.618 121.726 77.618 120.323C77.618 119.077 77.9297 118.038 78.6051 117.154C79.2285 116.271 80.1637 115.544 81.2547 115.076C82.3977 114.609 83.6965 114.349 85.0992 114.349C86.7098 114.349 88.1125 114.557 89.2035 115.024C90.2946 115.492 91.1778 116.115 91.7492 116.947C92.3207 117.778 92.6844 118.765 92.7364 119.908V120.168H87.8008V120.064C87.7489 119.7 87.6449 119.44 87.3852 119.181C87.1774 118.921 86.8656 118.765 86.45 118.609C86.0863 118.453 85.6188 118.401 85.1512 118.401C84.6836 118.401 84.268 118.453 83.9043 118.609C83.5926 118.765 83.3328 118.921 83.125 119.129C82.9692 119.336 82.8653 119.596 82.8653 119.908C82.8653 120.323 83.0731 120.635 83.4887 120.843C83.9043 121.051 84.5797 121.259 85.4629 121.414L87.2813 121.726C88.5801 121.986 89.6711 122.298 90.5024 122.765C91.3336 123.233 92.009 123.804 92.4246 124.48C92.8403 125.155 93.0481 126.038 93.0481 127.025C93.0481 128.272 92.7364 129.363 92.1129 130.298C91.4895 131.234 90.5543 131.961 89.3594 132.429C88.1645 132.896 86.7098 133.208 85.0473 133.208C83.6446 133.312 82.2938 133.052 81.0989 132.636Z" fill="white"/>
<path d="M95.2301 135.026C94.0871 135.026 93.152 134.091 93.152 132.948V114.661C93.152 113.518 94.0871 112.582 95.2301 112.582H100.633C101.776 112.582 102.711 113.518 102.711 114.661V132.948C102.711 134.091 101.776 135.026 100.633 135.026H95.2301Z" fill="#0071EE"/>
<path d="M95.2301 114.661H100.633V132.948H95.2301V114.661Z" fill="white"/>
<path d="M111.959 135.39C110.245 135.39 108.738 135.13 107.335 134.611C105.932 134.091 104.686 133.312 103.646 132.273C102.659 131.234 101.88 129.987 101.361 128.532C100.841 127.129 100.633 125.519 100.633 123.804C100.633 121.466 101.101 119.44 101.984 117.726C102.919 115.959 104.27 114.557 105.984 113.622C107.647 112.738 109.621 112.271 111.855 112.271C113.673 112.271 115.336 112.634 116.843 113.258C118.349 113.933 119.648 114.92 120.583 116.115C121.57 117.362 122.194 118.869 122.35 120.479V120.583C122.402 120.895 122.35 121.259 122.246 121.518C122.453 121.83 122.609 122.246 122.609 122.661V125.155C122.609 126.662 122.35 128.065 121.882 129.259C121.414 130.558 120.687 131.649 119.7 132.584C118.765 133.52 117.622 134.195 116.271 134.663C114.92 135.13 113.518 135.39 111.959 135.39Z" fill="#0071EE"/>
<path d="M108.062 132.636C106.92 132.221 105.932 131.597 105.153 130.818C104.374 129.987 103.75 129 103.335 127.857C102.919 126.714 102.711 125.311 102.711 123.804C102.711 121.778 103.075 120.116 103.802 118.661C104.53 117.258 105.569 116.167 106.92 115.44C108.27 114.713 109.881 114.349 111.751 114.349C113.258 114.349 114.661 114.609 115.855 115.18C117.102 115.752 118.089 116.479 118.817 117.414C119.596 118.349 120.012 119.44 120.116 120.687V120.791H114.816L114.764 120.687C114.557 120.064 114.193 119.596 113.673 119.232C113.154 118.869 112.478 118.713 111.699 118.713C110.92 118.713 110.296 118.921 109.725 119.284C109.205 119.648 108.79 120.22 108.478 120.947C108.166 121.674 108.062 122.609 108.062 123.7C108.062 124.532 108.166 125.259 108.322 125.882C108.478 126.506 108.79 127.077 109.102 127.493C109.465 127.909 109.829 128.272 110.348 128.48C110.816 128.688 111.336 128.844 111.959 128.844C112.53 128.844 113.05 128.74 113.518 128.584C113.985 128.428 114.349 128.116 114.609 127.805C114.868 127.441 115.076 127.025 115.128 126.558V126.35H111.907V122.661H120.271V125.155C120.271 126.402 120.064 127.545 119.7 128.532C119.336 129.519 118.765 130.402 118.037 131.078C117.31 131.805 116.427 132.325 115.388 132.688C114.349 133.052 113.154 133.26 111.803 133.26C110.504 133.312 109.205 133.104 108.062 132.636Z" fill="white"/>
<path d="M134.507 135.026C133.831 135.026 133.156 134.662 132.792 134.143L129.987 130.039V132.948C129.987 134.091 129.052 135.026 127.909 135.026H122.505C121.363 135.026 120.427 134.091 120.427 132.948V114.661C120.427 113.518 121.363 112.582 122.505 112.582H126.973C127.649 112.582 128.272 112.894 128.688 113.466L131.441 117.466V114.661C131.441 113.518 132.377 112.582 133.52 112.582H138.923C140.066 112.582 141.001 113.518 141.001 114.661V132.948C141.001 134.091 140.066 135.026 138.923 135.026H134.507Z" fill="#0071EE"/>
<path d="M122.557 114.661H127.025L134.922 126.09L131.389 124.012H133.571V114.661H138.975V132.948H134.559L126.61 121.362L130.143 123.441H127.961V132.948H122.557V114.661Z" fill="white"/>
<path d="M154.509 135.39C152.586 135.39 150.872 135.026 149.417 134.351C147.859 133.623 146.612 132.584 145.728 131.234C144.845 129.883 144.378 128.272 144.378 126.454V114.661C144.378 113.518 145.313 112.582 146.456 112.582H151.859C153.002 112.582 153.937 113.518 153.937 114.661V125.934C153.937 126.35 153.989 126.61 154.041 126.662C154.093 126.714 154.093 126.766 154.093 126.766C154.145 126.766 154.249 126.818 154.509 126.818C154.82 126.818 154.924 126.766 154.924 126.766C154.924 126.766 154.976 126.766 154.976 126.662C155.028 126.558 155.08 126.35 155.08 125.882V114.609C155.08 113.466 156.015 112.531 157.158 112.531H162.561C163.704 112.531 164.639 113.466 164.639 114.609V126.402C164.639 128.168 164.172 129.779 163.289 131.13C162.405 132.481 161.159 133.52 159.6 134.247C158.145 135.026 156.431 135.39 154.509 135.39Z" fill="#0071EE"/>
<path d="M150.248 132.429C149.053 131.857 148.118 131.078 147.443 130.039C146.768 129 146.456 127.805 146.456 126.402V114.609H151.859V125.882C151.859 126.506 151.963 127.077 152.171 127.493C152.378 127.909 152.69 128.272 153.054 128.532C153.469 128.74 153.937 128.896 154.509 128.896C155.08 128.896 155.6 128.792 155.963 128.532C156.379 128.324 156.691 127.961 156.846 127.493C157.002 127.025 157.158 126.506 157.158 125.882V114.609H162.561V126.402C162.561 127.805 162.25 129 161.574 129.987C160.899 131.026 159.964 131.805 158.769 132.377C157.574 132.948 156.119 133.208 154.509 133.208C152.898 133.312 151.495 133 150.248 132.429Z" fill="white"/>
<path d="M165.107 135.026C163.964 135.026 163.029 134.091 163.029 132.948V114.661C163.029 113.518 163.964 112.582 165.107 112.582H173.264C175.03 112.582 176.589 112.946 177.939 113.621C179.342 114.349 180.433 115.388 181.213 116.739C181.94 118.037 182.355 119.596 182.355 121.311C182.355 123.077 181.992 124.584 181.213 125.882C180.433 127.233 179.342 128.272 177.939 129C176.589 129.675 175.03 130.039 173.264 130.039H172.536V132.948C172.536 134.091 171.601 135.026 170.458 135.026H165.107ZM172.588 121.83C172.64 121.83 172.692 121.778 172.744 121.778C172.744 121.778 172.796 121.674 172.796 121.362C172.796 121.051 172.744 120.947 172.744 120.895C172.744 120.895 172.692 120.843 172.588 120.843V121.83Z" fill="#0071EE"/>
<path d="M165.107 114.661H170.51V132.948H165.107V114.661ZM167.809 124.012H172.017C172.9 124.012 173.575 123.804 174.095 123.337C174.614 122.869 174.874 122.246 174.874 121.362C174.874 120.479 174.614 119.804 174.095 119.388C173.575 118.973 172.9 118.713 172.017 118.713H167.809V114.661H173.264C174.718 114.661 175.913 114.92 176.952 115.492C177.991 116.063 178.823 116.791 179.394 117.83C179.966 118.817 180.225 120.012 180.225 121.362C180.225 122.713 179.966 123.908 179.394 124.895C178.823 125.882 177.991 126.662 176.952 127.181C175.913 127.701 174.666 128.012 173.264 128.012H167.809V124.012Z" fill="white"/>
<path d="M190.148 80.9949H73.5656C60.6293 80.9949 50.1348 91.4894 50.1348 104.426V143.079C50.1348 156.015 60.6293 166.51 73.5656 166.51H163.237C162.977 165.627 162.717 164.795 162.457 163.912C162.354 163.496 162.25 163.081 162.146 162.613C162.042 162.302 161.99 162.042 161.886 161.73H73.5656C63.2789 161.73 54.8625 153.366 54.8625 143.027V104.426C54.8625 94.139 63.227 85.7226 73.5656 85.7226H190.148C200.435 85.7226 208.852 94.0871 208.852 104.426V143.079C208.852 151.651 203.033 158.925 195.084 161.107C197.37 161.782 199.76 162.457 202.202 163.185C209.007 159.08 213.579 151.599 213.579 143.079V104.426C213.579 91.5414 203.085 80.9949 190.148 80.9949Z" fill="#0071EE"/>
<path d="M172.017 195.707C170.458 190.72 169.055 186.148 167.653 181.628C165.938 175.705 164.172 169.783 162.457 163.86C162.353 163.444 162.25 163.029 162.146 162.561C160.847 163.912 159.964 165.159 158.665 166.51C159.08 166.925 159.392 167.393 159.548 167.861C161.211 173.108 162.821 178.355 164.432 183.654C165.73 188.122 167.081 192.59 168.328 197.11C168.848 198.877 170.198 199.916 171.809 199.916C173.575 199.916 175.03 198.721 175.705 197.006C176.329 195.552 176.744 193.993 177.316 192.486C178.147 190.252 178.978 188.07 179.862 185.888C180.121 185.784 180.329 185.68 180.589 185.525C182.355 187.499 184.122 189.473 185.888 191.447C186.46 190.148 187.031 188.85 187.603 187.551C184.537 184.589 181.472 181.68 178.303 178.667C176.329 184.07 174.251 189.629 172.017 195.707Z" fill="#0071EE"/>
<path d="M197.993 176.173C196.591 174.666 195.188 173.212 193.733 171.653C197.578 170.198 201.318 168.588 205.111 167.341C208.124 166.354 209.319 162.665 206.098 160.171L199.812 158.405C197.006 157.522 194.149 156.743 191.343 155.963C187.81 154.924 184.278 153.833 180.745 152.794C178.355 152.119 175.913 151.443 173.471 150.82C168.848 149.417 164.276 147.807 159.6 146.664C156.275 145.832 153.677 148.066 154.924 152.067C155.703 154.509 156.431 157.002 157.158 159.6L158.977 165.834C160.016 164.743 161.055 163.652 162.094 162.561C160.951 158.613 159.86 154.716 158.613 150.352L172.121 154.353C177.887 156.067 183.602 157.73 189.369 159.392C194.097 160.743 198.773 162.146 204.02 163.652C200.851 164.795 197.993 165.834 195.188 166.873C192.382 167.913 189.577 169.004 187.083 169.991C189.941 173.004 192.798 175.965 195.655 178.979C197.526 180.901 199.448 182.875 201.318 184.797C203.708 187.239 203.812 190.824 201.578 193.058C198.928 195.707 195.863 195.655 193.162 193.006C191.343 191.188 189.473 189.369 187.603 187.551C187.031 188.85 186.46 190.148 185.888 191.447C187.239 192.85 188.538 194.253 189.941 195.604C193.266 198.825 197.11 199.864 201.474 197.993C207.657 195.344 208.54 187.343 205.163 183.291C203.033 180.745 200.383 178.563 197.993 176.173Z" fill="#0071EE"/>
</svg>
